<?xml version="1.0" encoding="utf-8"?>
<!-- Generator: Adobe Illustrator 24.1.1, SVG Export Plug-In . SVG Version: 6.00 Build 0)  -->
<svg version="1.1" id="Layer_1" xmlns="http://www.w3.org/2000/svg" xmlns:xlink="http://www.w3.org/1999/xlink" x="0px" y="0px"
	 viewBox="0 0 512 512" style="enable-background:new 0 0 512 512;" xml:space="preserve">
<g id="XMLID_1_">
	<path id="XMLID_5_" d="M256,0C123.8,0,14.9,100.5,1.9,229C0.9,238.3,0,246.7,0,256c0,9.3,0.9,17.7,1.9,27
		c13,128.5,121.9,229,254.1,229c141.5,0,256-114.5,256-256S397.5,0,256,0z M423.6,401.2c-27.9-10.2-73.5-26.1-101.5-34.4
		c-2.8-0.9-3.7-0.9-3.7-13c0-10.2,3.7-20.5,8.4-28.9c4.7-9.3,9.3-25.1,11.2-39.1c5.6-5.6,12.1-17.7,16.8-40
		c3.7-19.5,1.9-27-0.9-33.5c0-0.9-0.9-1.9-0.9-1.9c-0.9-4.7,0-28.9,3.7-47.5c2.8-13-0.9-40-18.6-63.3c-11.2-14-32.6-31.7-71.7-34.4
		h-21.4c-39.1,2.8-60.5,20.5-71.7,34.4c-17.7,22.3-20.5,50.3-18.6,63.3c3.7,18.6,4.7,42.8,3.7,47.5c0,0.9-0.9,1.9-0.9,1.9
		c-2.8,6.5-4.7,14-0.9,33.5c4.7,22.3,11.2,34.4,16.8,40c1.9,14,7.4,29.8,11.2,39.1c2.8,6.5,4.7,15.8,4.7,28.9
		c0,12.1-0.9,12.1-2.8,13c-28.9,8.4-72.6,24.2-98.7,34.4C52.1,361.2,32.6,310,32.6,256c0-59.6,23.3-114.5,65.2-156.4
		s97.7-65.2,156.4-65.2s114.5,23.3,156.4,65.2s65.2,97.7,65.2,156.4C477.6,310,458,361.2,423.6,401.2z"/>
</g>
</svg>
